<?xml version="1.0" encoding="UTF-8"?><svg xmlns="http://www.w3.org/2000/svg" xmlns:xlink="http://www.w3.org/1999/xlink" version="1.1" id="Layer_1" x="0px" y="0px" viewBox="0 0 16 16" xml:space="preserve"><path d="M15.118 6.304c-.317-.135-1.675.015-2.052-.326-.266-.246-.283-.69-.387-1.283-.174-.993-.247-1.218-.428-1.609C11.592 1.693 10.013.5 8.578.5H5.253C2.637.5.5 2.635.5 5.241v5.528C.5 13.37 2.637 15.5 5.253 15.5h5.463c2.616 0 4.739-2.13 4.754-4.731l.03-3.829s0-.473-.382-.636zm-9.804-1.93H7.95c.503 0 .91.406.91.902a.911.911 0 0 1-.91.907H5.314a.911.911 0 0 1-.91-.907.907.907 0 0 1 .91-.902zm5.357 7.227H5.314a.91.91 0 0 1-.91-.902c0-.496.407-.902.91-.902h5.357c.498 0 .905.406.905.902a.91.91 0 0 1-.905.902z" fill="none" stroke="#000" stroke-miterlimit="10"/><metadata><rdf:RDF xmlns:rdf="http://www.w3.org/1999/02/22-rdf-syntax-ns#" xmlns:rdfs="http://www.w3.org/2000/01/rdf-schema#" xmlns:dc="http://purl.org/dc/elements/1.1/"><rdf:Description about="https://iconscout.com/legal#licenses" dc:title="blogger,social,line,e" dc:description="blogger,social,line,e" dc:publisher="Iconscout" dc:date="2018-02-23" dc:format="image/svg+xml" dc:language="en"><dc:creator><rdf:Bag><rdf:li>Pixel Icons</rdf:li></rdf:Bag></dc:creator></rdf:Description></rdf:RDF></metadata></svg>