<?xml version="1.0" encoding="UTF-8"?><svg xmlns="http://www.w3.org/2000/svg" xmlns:xlink="http://www.w3.org/1999/xlink" version="1.1" id="Layer_1" x="0px" y="0px" viewBox="0 0 16 16" xml:space="preserve"><path d="M15.496 5.89C15.414 3.81 13.502.461 7.95.5 2.154.541.46 4.423.5 6.643c.041 2.219 1.49 3.448 1.49 3.448l2.163-1.783s-.918.079-.918-1.744c0-2.777 3.327-3.487 5.449-3.448 2.123.04 3.798 1.753 3.827 3.091.028 1.308-.319 2.137-1.378 2.734-1.264.714-2.798.08-2.798.08l.02-4.478-2.861.017-.007 7.909s-.026.633-.765.594c-.53-.028-1.199-.609-1.199-.609l.005 2.353s.826.694 2.132.694c2.817 0 2.695-2.754 2.695-2.754v-1.551s.575.277 1.718.277c4.735-.001 5.491-3.839 5.423-5.583z" fill="none" stroke="#000" stroke-linecap="round" stroke-linejoin="round" stroke-miterlimit="10"/><metadata><rdf:RDF xmlns:rdf="http://www.w3.org/1999/02/22-rdf-syntax-ns#" xmlns:rdfs="http://www.w3.org/2000/01/rdf-schema#" xmlns:dc="http://purl.org/dc/elements/1.1/"><rdf:Description about="https://iconscout.com/legal#licenses" dc:title="path,social,line,e" dc:description="path,social,line,e" dc:publisher="Iconscout" dc:date="2018-02-23" dc:format="image/svg+xml" dc:language="en"><dc:creator><rdf:Bag><rdf:li>Pixel Icons</rdf:li></rdf:Bag></dc:creator></rdf:Description></rdf:RDF></metadata></svg>