<?xml version="1.0" encoding="UTF-8"?><svg xmlns="http://www.w3.org/2000/svg" xmlns:xlink="http://www.w3.org/1999/xlink" version="1.1" id="Layer_1" x="0px" y="0px" viewBox="0 0 16 16" xml:space="preserve"><path id="XMLID_215_" d="M8.7.5C4.652.5 2.5 3.135 2.5 6.007c0 1.332.733 2.994 1.906 3.521.177.081.275.046.315-.122.035-.127.189-.741.264-1.031a.269.269 0 0 0-.063-.261c-.39-.457-.699-1.291-.699-2.072 0-2.004 1.569-3.949 4.237-3.949 2.307 0 3.922 1.523 3.922 3.7 0 2.461-1.282 4.163-2.948 4.163-.922 0-1.609-.735-1.391-1.645.263-1.083.779-2.247.779-3.028 0-.701-.389-1.28-1.185-1.28-.939 0-1.7.944-1.7 2.212 0 .805.281 1.349.281 1.349s-.927 3.81-1.099 4.522c-.292 1.204.04 3.156.069 3.324.017.093.12.122.177.046.092-.122 1.214-1.749 1.529-2.924l.584-2.166c.309.567 1.202 1.042 2.153 1.042 2.828 0 4.872-2.525 4.872-5.657C14.489 2.747 11.958.5 8.7.5" fill="none" stroke="#000" stroke-linecap="round" stroke-linejoin="round" stroke-miterlimit="10"/><metadata><rdf:RDF xmlns:rdf="http://www.w3.org/1999/02/22-rdf-syntax-ns#" xmlns:rdfs="http://www.w3.org/2000/01/rdf-schema#" xmlns:dc="http://purl.org/dc/elements/1.1/"><rdf:Description about="https://iconscout.com/legal#licenses" dc:title="pinterest,social,line,e" dc:description="pinterest,social,line,e" dc:publisher="Iconscout" dc:date="2018-02-23" dc:format="image/svg+xml" dc:language="en"><dc:creator><rdf:Bag><rdf:li>Pixel Icons</rdf:li></rdf:Bag></dc:creator></rdf:Description></rdf:RDF></metadata></svg>