<?xml version="1.0" encoding="UTF-8"?><svg xmlns="http://www.w3.org/2000/svg" xmlns:xlink="http://www.w3.org/1999/xlink" version="1.1" id="Layer_1" x="0px" y="0px" viewBox="0 0 16 16" xml:space="preserve"><g fill="none" stroke="#000" stroke-miterlimit="10"><circle cx="13.5" cy="3.5" r="1"/><path d="M12.91 7.06C11.72 6.1 9.96 5.5 8 5.5c-1.94 0-3.68.59-4.87 1.53C2.87 6.7 2.46 6.5 2 6.5 1.17 6.5.5 7.17.5 8c0 .68.45 1.25 1.06 1.42-.04.19-.06.38-.06.58 0 2.49 2.91 4.5 6.5 4.5s6.5-2.01 6.5-4.5c0-.19-.02-.38-.05-.56.64-.16 1.12-.74 1.12-1.44 0-.83-.68-1.5-1.5-1.5-.47 0-.89.22-1.16.56z" stroke-linecap="round" stroke-linejoin="round"/><circle cx="10.5" cy="9.5" r="0.5"/><circle cx="5.5" cy="9.5" r="0.5"/><path d="M5.984 12.412a3.44 3.44 0 0 0 4.032 0" stroke-linecap="round" stroke-linejoin="round"/><path stroke-linecap="round" stroke-linejoin="round" d="M12.532 3.26L9.28 2.5 8 5.5"/></g><metadata><rdf:RDF xmlns:rdf="http://www.w3.org/1999/02/22-rdf-syntax-ns#" xmlns:rdfs="http://www.w3.org/2000/01/rdf-schema#" xmlns:dc="http://purl.org/dc/elements/1.1/"><rdf:Description about="https://iconscout.com/legal#licenses" dc:title="reddit,social,line,e" dc:description="reddit,social,line,e" dc:publisher="Iconscout" dc:date="2018-02-23" dc:format="image/svg+xml" dc:language="en"><dc:creator><rdf:Bag><rdf:li>Pixel Icons</rdf:li></rdf:Bag></dc:creator></rdf:Description></rdf:RDF></metadata></svg>