<?xml version="1.0" encoding="UTF-8"?><svg xmlns="http://www.w3.org/2000/svg" xmlns:xlink="http://www.w3.org/1999/xlink" version="1.1" id="Layer_1" x="0px" y="0px" viewBox="0 0 16 16" xml:space="preserve"><g fill="none" stroke="#000" stroke-miterlimit="10"><path d="M15.234 8.078c0-3.895-3.202-7.054-7.154-7.054-.416 0-.825.036-1.223.103A4.175 4.175 0 0 0 4.65.5C2.357.5.5 2.331.5 4.591c0 .755.208 1.461.57 2.069a6.981 6.981 0 0 0-.145 1.418c0 3.897 3.203 7.054 7.154 7.054.448 0 .885-.041 1.311-.118.585.31 1.251.486 1.961.486 2.291 0 4.149-1.832 4.149-4.091 0-.653-.155-1.269-.431-1.817.108-.488.165-.994.165-1.514z"/><path d="M11.749 11.449c-.331.463-.819.828-1.454 1.087-.627.257-1.378.389-2.235.389-1.027 0-1.889-.178-2.562-.53a3.319 3.319 0 0 1-1.177-1.031c-.304-.431-.458-.86-.458-1.275 0-.257.101-.482.298-.665.196-.183.447-.274.747-.274.245 0 .458.072.63.216.165.138.306.343.42.604.127.287.265.529.41.717.141.184.343.338.601.459.259.12.609.183 1.039.183.592 0 1.077-.125 1.441-.37.357-.239.53-.528.53-.881a.868.868 0 0 0-.276-.669 2.022 2.022 0 0 0-.765-.416 15.796 15.796 0 0 0-1.312-.321c-.743-.156-1.374-.341-1.875-.552-.513-.215-.927-.513-1.229-.886-.307-.38-.463-.855-.463-1.415 0-.532.163-1.013.486-1.427.319-.411.787-.733 1.389-.951.594-.216 1.299-.326 2.099-.326.639 0 1.2.073 1.669.217.472.144.869.339 1.181.58.315.243.549.502.696.771.148.272.224.543.224.804a.954.954 0 0 1-.294.681.987.987 0 0 1-.735.303c-.265 0-.473-.064-.616-.19-.134-.117-.273-.3-.428-.561a2.333 2.333 0 0 0-.641-.782c-.241-.18-.642-.271-1.195-.271-.512 0-.93.101-1.239.302-.298.192-.444.414-.444.676 0 .16.047.295.144.409.101.123.244.23.426.32.188.093.382.168.576.22.198.055.532.136.99.24.579.122 1.111.26 1.581.409.477.15.888.334 1.225.55.342.22.613.502.806.839.193.34.291.757.291 1.243 0 .582-.169 1.111-.501 1.574z"/></g><metadata><rdf:RDF xmlns:rdf="http://www.w3.org/1999/02/22-rdf-syntax-ns#" xmlns:rdfs="http://www.w3.org/2000/01/rdf-schema#" xmlns:dc="http://purl.org/dc/elements/1.1/"><rdf:Description about="https://iconscout.com/legal#licenses" dc:title="skype,social,line,e" dc:description="skype,social,line,e" dc:publisher="Iconscout" dc:date="2018-02-23" dc:format="image/svg+xml" dc:language="en"><dc:creator><rdf:Bag><rdf:li>Pixel Icons</rdf:li></rdf:Bag></dc:creator></rdf:Description></rdf:RDF></metadata></svg>