<?xml version="1.0" encoding="UTF-8"?><svg xmlns="http://www.w3.org/2000/svg" xmlns:xlink="http://www.w3.org/1999/xlink" version="1.1" id="Layer_1" x="0px" y="0px" viewBox="0 0 16 16" xml:space="preserve"><g fill="none" stroke="#000" stroke-linecap="round" stroke-linejoin="round" stroke-miterlimit="10"><path d="M8.5 4.5v1.882l1 .5 1-.5V4.5c0-1.654-1.346-3-3-3s-3 1.346-3 3v6a1.001 1.001 0 0 1-2 0v-2h-2v2c0 1.654 1.346 3 3 3s3-1.346 3-3v-6c0-.551.449-1 1-1s1 .449 1 1z"/><path d="M12.5 8.5v2a1 1 0 0 1-2 0V8.618l-1 .5-1-.5V10.5c0 1.654 1.346 3 3 3s3-1.346 3-3v-2h-2z"/></g><metadata><rdf:RDF xmlns:rdf="http://www.w3.org/1999/02/22-rdf-syntax-ns#" xmlns:rdfs="http://www.w3.org/2000/01/rdf-schema#" xmlns:dc="http://purl.org/dc/elements/1.1/"><rdf:Description about="https://iconscout.com/legal#licenses" dc:title="stumbleupon,social,line,e" dc:description="stumbleupon,social,line,e" dc:publisher="Iconscout" dc:date="2018-02-23" dc:format="image/svg+xml" dc:language="en"><dc:creator><rdf:Bag><rdf:li>Pixel Icons</rdf:li></rdf:Bag></dc:creator></rdf:Description></rdf:RDF></metadata></svg>