<?xml version="1.0" encoding="UTF-8"?><svg xmlns="http://www.w3.org/2000/svg" xmlns:xlink="http://www.w3.org/1999/xlink" version="1.1" id="Layer_1" x="0px" y="0px" viewBox="0 0 16 16" xml:space="preserve"><path d="M11.878 8.57c2 0 3.622-1.583 3.622-3.535 0-1.951-1.622-3.534-3.622-3.534-1.819 0-3.324 1.309-3.581 3.014h-.116C7.923 2.809 6.418 1.5 4.599 1.5c-2 0-3.621 1.583-3.621 3.534 0 1.934 1.591 3.506 3.566 3.534v.002h.109v1.205L.5 8.676v4.701l4.154-1.22V13.5h6.104l-1.79-4.93h2.91zM4.599 6.033a1.01 1.01 0 0 1-1.023-.998c0-.551.458-.998 1.023-.998.564 0 1.023.447 1.023.998 0 .551-.459.998-1.023.998m6.331-.999c0-.551.457-.998 1.021-.998.566 0 1.024.447 1.024.998 0 .552-.458 1-1.024 1a1.01 1.01 0 0 1-1.021-1" fill="none" stroke="#000" stroke-linecap="round" stroke-linejoin="round" stroke-miterlimit="10"/><metadata><rdf:RDF xmlns:rdf="http://www.w3.org/1999/02/22-rdf-syntax-ns#" xmlns:rdfs="http://www.w3.org/2000/01/rdf-schema#" xmlns:dc="http://purl.org/dc/elements/1.1/"><rdf:Description about="https://iconscout.com/legal#licenses" dc:title="viddler,social,line,e" dc:description="viddler,social,line,e" dc:publisher="Iconscout" dc:date="2018-02-23" dc:format="image/svg+xml" dc:language="en"><dc:creator><rdf:Bag><rdf:li>Pixel Icons</rdf:li></rdf:Bag></dc:creator></rdf:Description></rdf:RDF></metadata></svg>