<?xml version="1.0" encoding="UTF-8"?><svg xmlns="http://www.w3.org/2000/svg" xmlns:xlink="http://www.w3.org/1999/xlink" version="1.1" id="Layer_1" x="0px" y="0px" viewBox="0 0 16 16" xml:space="preserve"><path d="M.5 5.019l.606.798s1.257-.991 1.674-.498c.424.498 2.027 6.476 2.558 7.581.463.969 1.748 2.246 3.153 1.335 1.418-.916 6.096-4.913 6.935-9.64.837-4.719-5.64-3.731-6.319.383 1.708-1.026 2.629.42 1.753 2.054-.877 1.641-1.683 2.71-2.1 2.71-.409 0-.734-1.1-1.214-3.011-.492-1.981-.492-5.549-2.551-5.143C3.049 1.972.5 5.019.5 5.019z" fill="none" stroke="#000" stroke-linecap="round" stroke-linejoin="round" stroke-miterlimit="10"/><metadata><rdf:RDF xmlns:rdf="http://www.w3.org/1999/02/22-rdf-syntax-ns#" xmlns:rdfs="http://www.w3.org/2000/01/rdf-schema#" xmlns:dc="http://purl.org/dc/elements/1.1/"><rdf:Description about="https://iconscout.com/legal#licenses" dc:title="vimeo,social,line,e" dc:description="vimeo,social,line,e" dc:publisher="Iconscout" dc:date="2018-02-23" dc:format="image/svg+xml" dc:language="en"><dc:creator><rdf:Bag><rdf:li>Pixel Icons</rdf:li></rdf:Bag></dc:creator></rdf:Description></rdf:RDF></metadata></svg>