<?xml version="1.0" encoding="UTF-8"?><svg xmlns="http://www.w3.org/2000/svg" xmlns:xlink="http://www.w3.org/1999/xlink" version="1.1" id="Layer_1" x="0px" y="0px" viewBox="0 0 16 16" xml:space="preserve"><path d="M13.983 6.714c.335-.751.517-1.726.517-2.58 0-2.298-1.158-3.635-3.282-3.635-2.183 0-3.46 1.697-3.46 3.935 0 2.217 1.025 4.121 2.714 4.988-.71 1.437-1.614 2.704-2.557 3.658-1.71-2.092-3.257-4.883-3.892-10.328H1.5c1.166 9.07 4.641 11.958 5.559 12.512.52.315.968.3 1.443.03.746-.429 2.986-2.694 4.228-5.348a8.203 8.203 0 0 0 1.771-.205V7.957a4.82 4.82 0 0 1-1.084.128c-1.871 0-3.311-1.322-3.311-3.62 0-1.126.43-1.712 1.039-1.712.579 0 .965.526.965 1.592 0 .607-.161 1.271-.279 1.664-.001 0 .576 1.017 2.152.705z" fill="none" stroke="#000" stroke-linecap="round" stroke-linejoin="round" stroke-miterlimit="10"/><metadata><rdf:RDF xmlns:rdf="http://www.w3.org/1999/02/22-rdf-syntax-ns#" xmlns:rdfs="http://www.w3.org/2000/01/rdf-schema#" xmlns:dc="http://purl.org/dc/elements/1.1/"><rdf:Description about="https://iconscout.com/legal#licenses" dc:title="vine,social,line,e" dc:description="vine,social,line,e" dc:publisher="Iconscout" dc:date="2018-02-23" dc:format="image/svg+xml" dc:language="en"><dc:creator><rdf:Bag><rdf:li>Pixel Icons</rdf:li></rdf:Bag></dc:creator></rdf:Description></rdf:RDF></metadata></svg>