<?xml version="1.0" encoding="UTF-8"?><svg xmlns="http://www.w3.org/2000/svg" xmlns:xlink="http://www.w3.org/1999/xlink" version="1.1" id="Layer_1" x="0px" y="0px" viewBox="0 0 16 16" xml:space="preserve"><g fill="none" stroke="#000" stroke-linecap="round" stroke-linejoin="round" stroke-miterlimit="10"><circle id="XMLID_2988_" cx="8" cy="8" r="7.5"/><path id="XMLID_2987_" d="M9.63 4.413c-.55.183-1.46.163-1.956.163s-1.406.02-1.957-.163"/><path d="M10.65 15.01L6.637 4.577"/><path d="M11.702 12.31L9 4.544"/><path id="XMLID_2984_" d="M4.413 4.413c-.55.183-1.466.163-1.957.163-.666 0-1.045-.163-1.045-.163"/><path id="XMLID_2983_" d="M1.412 4.413l3.936 10.605"/><path d="M6.29 12.64L3.7 4.54"/><path d="M13.22 8.33c.01-.03.02-.07.02-.1.35-1.54-1.65-3.54-1.65-4.47 0-.95.38-1.3.98-1.3.29 0 .54.1.75.27h.01c.13.1.24.23.34.38.07.1.14.21.2.32.3.58.35 1.77-.33 3.92-.08.25-.18.55-.3.88-.4 1.2-2.49 6.52-2.59 6.78"/><path id="XMLID_2980_" d="M5.348 15.018L8.04 8.225"/></g><metadata><rdf:RDF xmlns:rdf="http://www.w3.org/1999/02/22-rdf-syntax-ns#" xmlns:rdfs="http://www.w3.org/2000/01/rdf-schema#" xmlns:dc="http://purl.org/dc/elements/1.1/"><rdf:Description about="https://iconscout.com/legal#licenses" dc:title="wordpress,social,line,e" dc:description="wordpress,social,line,e" dc:publisher="Iconscout" dc:date="2018-02-23" dc:format="image/svg+xml" dc:language="en"><dc:creator><rdf:Bag><rdf:li>Pixel Icons</rdf:li></rdf:Bag></dc:creator></rdf:Description></rdf:RDF></metadata></svg>