<?xml version="1.0" encoding="UTF-8"?><svg xmlns="http://www.w3.org/2000/svg" xmlns:xlink="http://www.w3.org/1999/xlink" version="1.1" id="Layer_1" x="0px" y="0px" viewBox="0 0 16 16" xml:space="preserve"><g id="icon" transform="translate(182.000000, 150.000000)"><path id="zootool" d="M-177.363-139.601c2.27 4.388 2.908 5.101 4.465 5.101 1.691 0 3.398-1.291 3.398-2.459 0-.395-.208-.744-.415-.851-.712.395-1.35.607-1.929.607-.742 0-1.157-.334-3.516-3.887 1.795-1.579 2.849-2.627 4.213-4.616 1.172-.79 1.632-1.488 1.632-2.126 0-.547-.46-1.275-1.053-1.275-.283 0-.505.273-.801.744-2.181-.85-3.205-1.139-4.332-1.139-1.053 0-1.914.941-1.914 2.034 0 .623.252.971.638 1.093.504-.303.92-.425 1.187-.425.698 0 1.781.319 3.116.729-.667.987-2.403 2.809-3.649 3.811-.475-.41-.772-.562-1.201-.562-1.38 0-1.974 1.639-1.974 2.657 0 1.032.238 1.321.608 1.321.414.002 1.097-.362 1.527-.757z" fill="none" stroke="#000" stroke-linecap="round" stroke-linejoin="round" stroke-miterlimit="10"/></g><metadata><rdf:RDF xmlns:rdf="http://www.w3.org/1999/02/22-rdf-syntax-ns#" xmlns:rdfs="http://www.w3.org/2000/01/rdf-schema#" xmlns:dc="http://purl.org/dc/elements/1.1/"><rdf:Description about="https://iconscout.com/legal#licenses" dc:title="zootool,social,line,e" dc:description="zootool,social,line,e" dc:publisher="Iconscout" dc:date="2018-02-23" dc:format="image/svg+xml" dc:language="en"><dc:creator><rdf:Bag><rdf:li>Pixel Icons</rdf:li></rdf:Bag></dc:creator></rdf:Description></rdf:RDF></metadata></svg>