<svg xmlns="http://www.w3.org/2000/svg" width="32" height="32" enable-background="new 0 0 32 32" viewBox="0 0 32 32"><path fill="#FFF" d="M14.272 16.748c.755-.875 1.228-2.001 1.228-3.248 0-2.761-2.238-5-5-5h-9v7 3 7H11c2.762 0 5-2.239 5-5C16 18.997 15.323 17.665 14.272 16.748zM4.5 11.5H10c1.104 0 2 .896 2 2s-.896 2-2 2H4.5V11.5zM10.5 22.5h-6v-4H10h.5c1.104 0 2 .896 2 2S11.604 22.5 10.5 22.5zM25.988 21.5c-.456.604-1.173 1-1.988 1-1.381 0-2.5-1.119-2.5-2.5v-.5h8.975c.013-.166.025-.331.025-.5v-1c0-3.59-2.91-6.5-6.5-6.5s-6.5 2.91-6.5 6.5v1c0 3.59 2.91 6.5 6.5 6.5 2.704 0 5.021-1.651 6-4H25.988zM21.5 17c0-1.381 1.119-2.5 2.5-2.5s2.5 1.119 2.5 2.5v.5h-5V17z"/><path fill="#73C2E6" d="M24.6 12.8c-3.59 0-6.5 2.91-6.5 6.5v1c0 .713.119 1.398.332 2.04 1.137 1.891 3.201 3.16 5.568 3.16 2.704 0 5.021-1.651 6-4h-4.012c-.456.604-1.173 1-1.988 1-1.381 0-2.5-1.119-2.5-2.5v-.5h8.975c.013-.166.025-.331.025-.5v-1c0-.713-.119-1.398-.331-2.04C29.032 14.069 26.967 12.8 24.6 12.8zM26.5 17.5h-5V17c0-1.381 1.119-2.5 2.5-2.5s2.5 1.119 2.5 2.5V17.5zM15.143 17.739c-.248-.366-.537-.701-.87-.992.755-.875 1.228-2.001 1.228-3.248 0-.243-.038-.476-.071-.709C14.539 11.141 12.719 10 10.756 10H4c-1.104 0-2 .896-2 2v5 3 5.5h9c2.762 0 5-2.239 5-5 0-.27-.029-.532-.07-.789C15.636 19.155 15.025 17.914 15.143 17.739zM4.5 11.5H10c1.104 0 2 .896 2 2s-.896 2-2 2H4.5V11.5zM10.5 22.5h-6v-4H10h.5c1.104 0 2 .896 2 2S11.604 22.5 10.5 22.5z"/><rect width="7" height="2" x="20.5" y="7.5" fill="#80D8FF"/><g><path fill="#455A64" d="M11 26H1.5C1.224 26 1 25.776 1 25.5v-17C1 8.224 1.224 8 1.5 8S2 8.224 2 8.5V25h9c2.481 0 4.5-2.019 4.5-4.5 0-1.282-.567-2.513-1.557-3.375-.207-.181-.229-.495-.05-.704C14.617 15.582 15 14.572 15 13.5c0-2.481-2.019-4.5-4.5-4.5h-7C3.224 9 3 8.776 3 8.5S3.224 8 3.5 8h7c3.032 0 5.5 2.467 5.5 5.5 0 1.14-.371 2.26-1.053 3.2.992 1.026 1.553 2.386 1.553 3.8C16.5 23.533 14.032 26 11 26zM10.5 23h-6C4.224 23 4 22.776 4 22.5v-4C4 18.224 4.224 18 4.5 18h6c1.379 0 2.5 1.122 2.5 2.5S11.879 23 10.5 23zM5 22h5.5c.827 0 1.5-.673 1.5-1.5S11.327 19 10.5 19H5V22zM10 16H4.5C4.224 16 4 15.776 4 15.5v-4C4 11.224 4.224 11 4.5 11H10c1.379 0 2.5 1.122 2.5 2.5S11.379 16 10 16zM5 15h5c.827 0 1.5-.673 1.5-1.5S10.827 12 10 12H5V15zM24 26c-3.859 0-7-3.14-7-7v-1c0-1.816.692-3.538 1.95-4.847.191-.2.508-.204.707-.015.199.191.205.508.014.707C18.594 14.968 18 16.443 18 18v1c0 3.309 2.691 6 6 6 2.169 0 4.135-1.155 5.196-3h-2.973c-.569.639-1.367 1-2.224 1-1.654 0-3-1.346-3-3v-.5c0-.276.224-.5.5-.5H30v-1c0-3.309-2.691-6-6-6-.8 0-1.576.155-2.308.459-.251.107-.548-.014-.654-.269-.105-.255.015-.548.27-.654C22.162 11.181 23.067 11 24 11c3.859 0 7 3.14 7 7v1c0 .182-.014.36-.026.538C30.953 19.799 30.736 20 30.475 20H22c0 1.103.897 2 2 2 .626 0 1.205-.292 1.589-.801C25.684 21.074 25.831 21 25.988 21H30c.167 0 .323.083.416.223s.109.315.046.47C29.37 24.309 26.834 26 24 26zM26.5 18h-5c-.276 0-.5-.224-.5-.5V17c0-1.654 1.346-3 3-3s3 1.346 3 3v.5C27 17.776 26.776 18 26.5 18zM22 17h4c0-1.103-.897-2-2-2S22 15.897 22 17zM27.5 10h-7C20.224 10 20 9.776 20 9.5v-2C20 7.224 20.224 7 20.5 7h7C27.776 7 28 7.224 28 7.5v2C28 9.776 27.776 10 27.5 10zM21 9h6V8h-6V9z"/></g></svg>