<svg xmlns="http://www.w3.org/2000/svg" width="32" height="32" enable-background="new 0 0 32 32" viewBox="0 0 32 32"><path fill="#78909C" d="M6.5,8.5v4h-5v9h7v-13H6.5z M6.5,19.5h-3v-5h3V19.5z"/><rect width="2" height="9" x="10.5" y="12.5" fill="#78909C"/><rect width="2" height="2" x="10.5" y="8.5" fill="#78909C"/><path fill="#78909C" d="M23.5 12.5v9h5v2h-5v2h7v-13H23.5zM28.5 19.5h-3v-5h3V19.5zM14.5 12.5v9h5v2h-5v2h7v-13H14.5zM19.5 19.5h-3v-5h3V19.5z"/><path fill="#455A64" d="M8.5 22h-7C1.224 22 1 21.776 1 21.5v-9C1 12.224 1.224 12 1.5 12H6V8.5C6 8.224 6.224 8 6.5 8h2C8.776 8 9 8.224 9 8.5v13C9 21.776 8.776 22 8.5 22zM2 21h6V9H7v3.5C7 12.776 6.776 13 6.5 13H2V21zM6.5 20h-3C3.224 20 3 19.776 3 19.5v-5C3 14.224 3.224 14 3.5 14h3C6.776 14 7 14.224 7 14.5S6.776 15 6.5 15H4v4h2v-2.5C6 16.224 6.224 16 6.5 16S7 16.224 7 16.5v3C7 19.776 6.776 20 6.5 20zM12.5 22h-2c-.276 0-.5-.224-.5-.5v-7c0-.276.224-.5.5-.5s.5.224.5.5V21h1v-8h-1.5c-.276 0-.5-.224-.5-.5s.224-.5.5-.5h2c.276 0 .5.224.5.5v9C13 21.776 12.776 22 12.5 22zM12.5 11h-2c-.276 0-.5-.224-.5-.5v-2C10 8.224 10.224 8 10.5 8h2C12.776 8 13 8.224 13 8.5v2C13 10.776 12.776 11 12.5 11zM11 10h1V9h-1V10zM30.5 26h-7c-.276 0-.5-.224-.5-.5v-2c0-.276.224-.5.5-.5H28v-1h-4.5c-.276 0-.5-.224-.5-.5v-9c0-.276.224-.5.5-.5h7c.276 0 .5.224.5.5v13C31 25.776 30.776 26 30.5 26zM24 25h6V13h-6v8h4.5c.276 0 .5.224.5.5v2c0 .276-.224.5-.5.5H24V25zM28.5 20h-3c-.276 0-.5-.224-.5-.5v-5c0-.276.224-.5.5-.5h3c.276 0 .5.224.5.5S28.776 15 28.5 15H26v4h2v-2.5c0-.276.224-.5.5-.5s.5.224.5.5v3C29 19.776 28.776 20 28.5 20zM21.5 26h-7c-.276 0-.5-.224-.5-.5v-2c0-.276.224-.5.5-.5H19v-1h-4.5c-.276 0-.5-.224-.5-.5v-9c0-.276.224-.5.5-.5h7c.276 0 .5.224.5.5v13C22 25.776 21.776 26 21.5 26zM15 25h6V13h-6v8h4.5c.276 0 .5.224.5.5v2c0 .276-.224.5-.5.5H15V25zM19.5 20h-3c-.276 0-.5-.224-.5-.5v-5c0-.276.224-.5.5-.5h3c.276 0 .5.224.5.5S19.776 15 19.5 15H17v4h2v-2.5c0-.276.224-.5.5-.5s.5.224.5.5v3C20 19.776 19.776 20 19.5 20z"/></svg>