<svg xmlns="http://www.w3.org/2000/svg" width="32" height="32" enable-background="new 0 0 32 32" viewBox="0 0 32 32"><circle cx="16" cy="16" r="14.5" fill="#FFF"/><path fill="#F48FB1" d="M30.5,16c0-1.339-0.196-2.631-0.536-3.862C27.83,6.787,22.612,3,16.5,3C8.492,3,2,9.492,2,17.5
			c0,1.339,0.196,2.631,0.536,3.862C4.67,26.713,9.888,30.5,16,30.5C24.008,30.5,30.5,24.008,30.5,16z"/><path fill="#455A64" d="M15.737,31C7.474,31,1,24.411,1,16c0-3.629,1.238-7.111,3.485-9.804c0.176-0.212,0.493-0.241,0.704-0.063
			C5.401,6.31,5.43,6.625,5.253,6.837C3.155,9.35,2,12.604,2,16c0,7.851,6.034,14,13.737,14C23.602,30,30,23.72,30,16
			S23.602,2,15.737,2c-2.441,0-4.812,0.62-6.857,1.791C8.641,3.928,8.334,3.846,8.198,3.606C8.06,3.366,8.143,3.061,8.383,2.924
			C10.579,1.665,13.122,1,15.737,1C24.153,1,31,7.729,31,16S24.153,31,15.737,31z"/><path fill="#455A64" d="M7.543 4.552c0 .275-.225.5-.5.5l0 0c-.275 0-.5-.225-.5-.5l0 0c0-.275.225-.5.5-.5l0 0C7.318 4.052 7.543 4.276 7.543 4.552L7.543 4.552zM3.555 15.122c-.654 0-1.32-.013-2.003-.038-.276-.01-.492-.242-.481-.518.01-.276.242-.503.518-.481 5.316.194 9.596-.36 15.278-1.967 5.118-1.448 8.737-6.283 8.773-6.332.164-.222.477-.269.7-.105.222.164.269.478.105.699-.155.21-3.862 5.16-9.305 6.7C12.076 14.512 8.1 15.122 3.555 15.122zM6.682 27.6c-.054 0-.108-.009-.162-.027-.261-.09-.4-.374-.311-.635 1.188-3.465 6.325-9.292 12.505-10.765 4.296-1.025 9.745-.237 11.946 1.112.235.144.31.452.165.688-.144.235-.451.31-.688.165-2.03-1.242-7.248-1.931-11.192-.992-5.614 1.338-10.651 6.794-11.79 10.116C7.084 27.47 6.89 27.6 6.682 27.6z"/><path fill="#455A64" d="M22.049,28.876c-0.247,0-0.461-0.183-0.495-0.434c-1.313-9.784-5.933-19.631-9.615-23.93
		c-0.18-0.209-0.155-0.525,0.055-0.705c0.209-0.179,0.525-0.155,0.705,0.055c3.13,3.655,8.335,13.182,9.846,24.448
		c0.037,0.273-0.155,0.525-0.429,0.562C22.094,28.875,22.071,28.876,22.049,28.876z"/></svg>