<svg xmlns="http://www.w3.org/2000/svg" width="32" height="32" enable-background="new 0 0 32 32" viewBox="0 0 32 32"><circle cx="24" cy="16" r="6.5" fill="#F48FB1"/><path fill="#455A64" d="M24,23c-3.86,0-7-3.14-7-7s3.14-7,7-7s7,3.14,7,7S27.86,23,24,23z M24,10c-3.309,0-6,2.691-6,6
			s2.691,6,6,6s6-2.691,6-6S27.309,10,24,10z"/><g><circle cx="8" cy="16" r="6.5" fill="#80D8FF"/><path fill="#455A64" d="M8,23c-3.86,0-7-3.14-7-7s3.14-7,7-7s7,3.14,7,7S11.86,23,8,23z M8,10c-3.309,0-6,2.691-6,6s2.691,6,6,6
			s6-2.691,6-6S11.309,10,8,10z"/></g></svg>