<svg xmlns="http://www.w3.org/2000/svg" width="32" height="32" enable-background="new 0 0 32 32" viewBox="0 0 32 32"><path fill="#FFF" d="M20.837,30.503h-5.52c0-7.617-6.196-13.813-13.813-13.813v-5.52C12.166,11.17,20.837,19.841,20.837,30.503z
		"/><path fill="#FFB74D" d="M15.317,30.503h5.52c0-4.941-1.878-9.441-4.938-12.862c-3.422-3.084-7.936-4.975-12.896-4.975v4.074
		c0.845,0.061,1.635,0.243,2.379,0.513C11.116,18.936,15.317,24.233,15.317,30.503z"/><path fill="#FFF" d="M30.504,30.503h-5.52c0-12.944-10.537-23.48-23.48-23.48v-5.52C17.492,1.503,30.504,14.515,30.504,30.503z"/><path fill="#FFB74D" d="M3,3v4.076c12.249,0.775,21.984,10.987,21.984,23.428h5.52c0-7.612-2.954-14.545-7.77-19.725
		C17.554,5.958,10.617,3,3,3z"/><path fill="#FFF" d="M1.504,26.356c0-2.281,1.856-4.137,4.146-4.137c2.282,0,4.138,1.856,4.138,4.137
		c0,2.291-1.855,4.147-4.138,4.147C3.36,30.503,1.504,28.647,1.504,26.356z"/><path fill="#FFB74D" d="M9.788,26.356c0-0.182-0.031-0.356-0.054-0.532c-0.712-1.252-2.043-2.108-3.584-2.108
		c-2.29,0-4.146,1.856-4.146,4.137c0,0.185,0.031,0.361,0.055,0.539c0.713,1.255,2.045,2.111,3.592,2.111
		C7.933,30.503,9.788,28.647,9.788,26.356z"/><path fill="#455A64" d="M20.837,31.003h-5.52c-0.276,0-0.5-0.224-0.5-0.5c0-7.341-5.973-13.313-13.313-13.313
		c-0.276,0-0.5-0.224-0.5-0.5V13.5c0-0.276,0.224-0.5,0.5-0.5s0.5,0.224,0.5,0.5v2.699c7.496,0.258,13.547,6.308,13.805,13.805
		h4.521C20.064,19.849,11.721,11.67,1.504,11.67c-0.276,0-0.5-0.224-0.5-0.5s0.224-0.5,0.5-0.5c10.936,0,19.833,8.897,19.833,19.833
		C21.337,30.78,21.113,31.003,20.837,31.003z"/><path fill="#455A64" d="M30.504 31.003h-5.52c-.276 0-.5-.224-.5-.5 0-12.671-10.309-22.98-22.98-22.98-.276 0-.5-.224-.5-.5V3.5c0-.276.224-.5.5-.5s.5.224.5.5v3.029c12.827.264 23.212 10.648 23.476 23.475H30c-.268-15.485-12.948-28-28.496-28-.276 0-.5-.224-.5-.5s.224-.5.5-.5c16.267 0 29.5 13.233 29.5 29.5C31.004 30.78 30.78 31.003 30.504 31.003zM5.65 31.003c-2.563 0-4.646-2.084-4.646-4.647 0-1.167.437-2.282 1.229-3.141C2.421 23.013 2.737 23 2.939 23.188c.203.187.216.503.028.707-.621.673-.964 1.548-.964 2.462 0 2.011 1.636 3.647 3.646 3.647 2.006 0 3.638-1.636 3.638-3.647 0-2.005-1.632-3.637-3.638-3.637-.261 0-.521.028-.773.082-.263.061-.536-.113-.595-.383-.058-.27.114-.536.384-.594.322-.069.653-.104.984-.104 2.558 0 4.638 2.08 4.638 4.637C10.288 28.919 8.208 31.003 5.65 31.003z"/></svg>