<svg xmlns="http://www.w3.org/2000/svg" width="32" height="32" enable-background="new 0 0 32 32" viewBox="0 0 32 32"><path fill="#FFF" d="M22.548,24.664c-0.528,0.257-1.551,0.481-2.303,0.5c-2.272,0.062-2.745-1.631-2.745-2.858
		V13.5h6v-5h-6v-7h-4.211c-0.068,0-0.188,0.061-0.204,0.217C12.842,3.978,11.844,7.938,7.5,9.232V13.5h3v9.253
		c0,3.244,2.328,7.854,8.512,7.745c2.086-0.037,4.396-0.929,4.907-1.699L22.548,24.664L22.548,24.664z"/><path fill="#607D8B" d="M12,13.5v10.253c0,1.879,0.789,4.212,2.649,5.825c1.169,0.592,2.604,0.95,4.362,0.919
		c2.086-0.037,4.396-0.929,4.907-1.699l-1.371-4.135c-0.528,0.257-1.551,0.481-2.303,0.5c-2.272,0.062-2.745-1.631-2.745-2.858V13.5
		h6v-5h-6v-6h-2.711c-0.068,0-0.188,0.061-0.204,0.217C14.342,4.978,13.344,8.938,9,10.232V13.5h1.5H12z"/><path fill="#455A64" d="M18.803 31c-2.576 0-4.766-.816-6.344-2.366C10.919 27.121 10 24.923 10 22.753V17.5c0-.276.224-.5.5-.5s.5.224.5.5v5.253c0 1.907.808 3.838 2.16 5.167 1.446 1.421 3.406 2.134 5.843 2.077 1.842-.032 3.738-.762 4.352-1.312l-1.281-3.865c-.087-.262.055-.545.317-.632.26-.087.546.055.632.317l1.371 4.135c.049.146.027.306-.059.434-.644.968-3.177 1.884-5.314 1.922C18.948 30.999 18.875 31 18.803 31zM11 14H7.5C7.224 14 7 13.776 7 13.5V9.232c0-.276.224-.5.5-.5S8 8.956 8 9.232V13h3c.276 0 .5.224.5.5S11.276 14 11 14z"/><path fill="#455A64" d="M20.124 25.666c-.919 0-1.658-.266-2.198-.791C17.161 24.131 17 23.067 17 22.306V13.5c0-.276.224-.5.5-.5H23V9h-5.5C17.224 9 17 8.776 17 8.5V2h-3.444c-.273 2.194-1.166 5.064-3.811 6.759-.23.147-.541.082-.69-.151C8.905 8.376 8.974 8.066 9.206 7.917c2.404-1.542 3.166-4.252 3.382-6.254C12.634 1.232 12.983 1 13.289 1H17.5C17.776 1 18 1.224 18 1.5V8h5.5C23.776 8 24 8.224 24 8.5v5c0 .276-.224.5-.5.5H18v8.306c0 .465.081 1.325.623 1.853.365.355.919.525 1.608.506.672-.017 1.632-.224 2.098-.45.244-.119.547-.018.668.231.121.248.018.547-.23.668-.591.288-1.692.529-2.509.551C20.213 25.666 20.168 25.666 20.124 25.666zM11 15.5c0 .275-.225.5-.5.5l0 0c-.275 0-.5-.225-.5-.5l0 0c0-.275.225-.5.5-.5l0 0C10.775 15 11 15.225 11 15.5L11 15.5z"/></svg>